<!-- Generated by IcoMoon.io -->
<svg version="1.1" xmlns="http://www.w3.org/2000/svg" width="23" height="32" viewBox="0 0 23 32">
<title>delete</title>
<path fill="#636363" d="M5.207 12.674v11.096c0 0.611 0.502 1.104 1.113 1.104h9.982c0.611 0 1.113-0.493 1.113-1.104v-11.096h-12.209zM8.3 22.656h-1.323v-7.765h1.323v7.765zM10.727 22.656h-1.314v-7.765h1.314v7.765zM13.209 22.656h-1.323v-7.765h1.323v7.765zM15.636 22.656h-1.314v-7.765h1.314v7.765z"></path>
<path fill="#8a8a8a" d="M17.689 9.344h-3.604v-1.387c0-0.456-0.374-0.83-0.83-0.83h-3.887c-0.456 0-0.83 0.374-0.83 0.83v1.387h-3.604c-0.465 0-0.839 0.374-0.839 0.83v1.387h14.426v-1.387c0-0.456-0.374-0.83-0.83-0.83zM12.972 9.344h-3.33v-1.095h3.33v1.095z"></path>
</svg>
