<!-- Generated by IcoMoon.io -->
<svg version="1.1" xmlns="http://www.w3.org/2000/svg" width="23" height="32" viewBox="0 0 23 32">
<title>list</title>
<path fill="#636363" d="M9.459 9.125c-0.575 0.201-0.684 0.456-0.684 1.204 0 0.42-0.046 1.113 0.046 1.442 0.155 0.529 0.602 0.648 1.241 0.639 1.624 0 8.97 0.1 9.407-0.046 0.511-0.173 0.648-0.538 0.648-1.204 0-0.766 0.018-0.876-0.027-1.25-0.119-0.976-0.666-0.839-3.148-0.839-0.995 0-7.053-0.091-7.482 0.055z"></path>
<path fill="#636363" d="M9.459 14.161c-0.575 0.201-0.684 0.465-0.684 1.214 0 0.566-0.009 0.566 0 0.912 0.055 1.332 0.438 1.168 3.184 1.168 1.013 0 7.053 0.1 7.51-0.046 0.511-0.173 0.648-0.538 0.648-1.204 0-0.429 0.055-1.104-0.046-1.442-0.155-0.529-0.566-0.657-1.241-0.648-1.606 0-8.951-0.1-9.371 0.046z"></path>
<path fill="#636363" d="M9.486 19.189c-0.557 0.164-0.712 0.493-0.712 1.168 0 0.438-0.055 1.086 0.037 1.451 0.128 0.538 0.557 0.693 1.195 0.693 1.332-0.009 9.061 0.064 9.417-0.037 0.529-0.146 0.693-0.52 0.693-1.159 0-0.757 0.018-0.867-0.018-1.241-0.1-1.049-0.63-0.912-3.102-0.912-0.894 0-7.181-0.055-7.51 0.037z"></path>
<path fill="#8a8a8a" d="M3.181 19.189c-0.73 0.21-0.712 0.684-0.712 1.515 0.009 0.52 0 0.465 0.018 0.766 0.064 0.995 0.401 1.031 2.126 1.031 2.29 0 2.902 0.31 2.893-1.56 0-0.31 0.037-0.228 0.018-0.575-0.009-0.374-0.064-0.73-0.265-0.931-0.392-0.392-1.223-0.283-1.898-0.283-0.447 0-1.861-0.055-2.181 0.037z"></path>
<path fill="#636363" d="M3.163 14.161c-0.757 0.265-0.693 0.648-0.693 1.56 0 0.502 0 0.456 0.027 0.757 0.073 0.995 0.447 0.976 2.181 0.976 2.382 0 2.838 0.292 2.829-1.597 0-0.374 0.046-0.42 0-0.821-0.037-0.274-0.109-0.52-0.274-0.666-0.411-0.374-1.259-0.255-1.925-0.255-0.465 0-1.807-0.064-2.144 0.046z"></path>
<path fill="#8a8a8a" d="M3.163 9.125c-0.757 0.265-0.693 0.639-0.693 1.551 0 0.474 0 0.42 0.018 0.712 0.073 1.049 0.42 1.022 2.19 1.022 0.438 0 1.88 0.055 2.181-0.046 0.502-0.164 0.62-0.493 0.648-0.976 0.009-0.173 0 0.064 0-0.137 0-0.575 0.009-0.985-0.027-1.296-0.1-0.912-0.502-0.885-2.172-0.885-0.456 0-1.816-0.064-2.144 0.055z"></path>
</svg>
