<?xml version="1.0" encoding="UTF-8"?>
<!DOCTYPE svg PUBLIC "-//W3C//DTD SVG 1.1//EN" "http://www.w3.org/Graphics/SVG/1.1/DTD/svg11.dtd">
<!-- Creator: CorelDRAW X7 -->
<svg xmlns="http://www.w3.org/2000/svg" xml:space="preserve" width="100px" height="87px" version="1.1" style="shape-rendering:geometricPrecision; text-rendering:geometricPrecision; image-rendering:optimizeQuality; fill-rule:evenodd; clip-rule:evenodd"
viewBox="0 0 100 87"
 xmlns:xlink="http://www.w3.org/1999/xlink">
 <defs>
  <style type="text/css">
   <![CDATA[
    .fil0 {fill:#EDEDED}
   ]]>
  </style>
 </defs>
 <g id="Слой_x0020_1">
  <metadata id="CorelCorpID_0Corel-Layer"/>
  <path class="fil0" d="M27 53c-2,-14 8,-24 20,-26 14,-2 25,9 26,20 1,13 -7,24 -20,26 -14,2 -25,-8 -26,-20zm-2 -40c-5,0 -13,0 -17,2 -4,2 -7,5 -8,11 0,5 0,29 0,36 0,6 -1,13 2,17 2,4 5,7 11,8 5,0 71,0 74,0 6,-1 9,-4 11,-7 3,-4 2,-12 2,-17 0,-8 0,-32 0,-37 -1,-6 -4,-9 -8,-11 -4,-2 -12,-2 -17,-2 -1,-4 -3,-9 -7,-11 -4,-3 -13,-2 -18,-2 -15,0 -21,-2 -25,13zm10 39c1,7 8,14 17,13 7,-1 14,-8 13,-16 -1,-8 -8,-15 -17,-14 -7,1 -14,8 -13,17z"/>
 </g>
</svg>
