<?xml version="1.0" encoding="UTF-8"?>
<!DOCTYPE svg PUBLIC "-//W3C//DTD SVG 1.1//EN" "http://www.w3.org/Graphics/SVG/1.1/DTD/svg11.dtd">
<!-- Creator: CorelDRAW X7 -->
<svg xmlns="http://www.w3.org/2000/svg" xml:space="preserve" width="5mm" height="5mm" version="1.1" style="shape-rendering:geometricPrecision; text-rendering:geometricPrecision; image-rendering:optimizeQuality; fill-rule:evenodd; clip-rule:evenodd"
viewBox="0 0 500 500"
 xmlns:xlink="http://www.w3.org/1999/xlink">
 <defs>
  <style type="text/css">
   <![CDATA[
    .fil3 {fill:#24242A}
    .fil0 {fill:#CDCDCD}
    .fil4 {fill:#F3F3F3}
    .fil2 {fill:#F75B4D}
    .fil1 {fill:#FEC107}
   ]]>
  </style>
 </defs>
 <g id="Слой_x0020_1">
  <metadata id="CorelCorpID_0Corel-Layer"/>
  <path class="fil0" d="M7 195c6,-15 107,-25 161,-30 22,-53 66,-148 81,-148 13,0 62,95 86,147 54,6 155,21 158,33 2,11 -48,65 -107,115 11,57 22,158 13,170 -10,9 -102,-41 -147,-68 -46,28 -140,76 -151,69 -12,-10 3,-111 16,-171 -47,-38 -117,-100 -110,-117z"/>
  <path class="fil0" d="M37 580c3,-8 43,-10 64,-12 9,-21 25,-58 32,-58 8,0 25,37 35,58 21,2 61,7 63,13 1,6 -19,26 -43,46 4,22 10,61 5,67 -5,5 -40,-16 -58,-27 -18,11 -54,31 -60,27 -7,-4 1,-43 6,-68 -19,-14 -46,-38 -44,-46z"/>
  <path class="fil1" d="M269 583c2,-8 42,-10 64,-12 9,-21 24,-59 32,-59 7,0 24,38 34,58 22,3 62,7 63,13 1,7 -19,26 -43,46 5,23 10,62 5,68 -5,5 -40,-16 -58,-27 -18,11 -54,31 -60,27 -6,-5 1,-44 7,-68 -19,-15 -46,-38 -44,-46z"/>
  <path class="fil2" d="M496 583c2,-8 43,-10 64,-12 9,-21 24,-59 32,-59 7,0 25,38 34,58 22,3 62,7 63,13 2,7 -19,26 -43,46 5,23 10,62 6,68 -6,5 -41,-16 -59,-27 -18,11 -53,31 -60,27 -6,-5 1,-44 7,-68 -19,-15 -46,-38 -44,-46z"/>
  <circle class="fil3" cx="-114" cy="2242" r="158"/>
  <path class="fil2" d="M-217 2211c3,-8 46,-11 68,-13 10,-22 26,-62 34,-62 8,0 26,40 37,62 23,2 65,7 66,14 2,7 -20,27 -45,48 5,24 11,65 6,72 -6,5 -43,-17 -62,-29 -20,12 -57,33 -64,29 -7,-5 1,-46 7,-72 -20,-16 -49,-41 -47,-49z"/>
  <circle class="fil4" cx="281" cy="2242" r="158"/>
  <path class="fil0" d="M178 2211c3,-8 45,-11 68,-13 9,-22 26,-62 34,-62 8,0 26,40 36,62 23,2 66,7 67,14 2,7 -20,27 -45,48 5,24 11,65 5,72 -5,5 -42,-17 -61,-29 -20,12 -57,33 -64,29 -7,-5 1,-46 7,-72 -20,-16 -49,-41 -47,-49z"/>
  <path class="fil1" d="M-217 1333c3,-8 46,-10 68,-13 10,-22 26,-62 34,-62 8,0 26,40 37,62 23,2 65,7 66,14 2,7 -20,27 -45,49 5,23 11,65 6,71 -6,6 -43,-17 -62,-29 -20,12 -57,33 -64,29 -7,-5 1,-46 7,-72 -20,-16 -49,-41 -47,-49z"/>
  <path class="fil1" d="M54 1333c2,-8 45,-10 68,-13 9,-22 26,-62 34,-62 7,0 26,40 36,62 23,2 65,7 67,14 1,7 -20,27 -45,49 4,23 10,65 5,71 -6,6 -43,-17 -62,-29 -19,12 -57,33 -63,29 -7,-5 1,-46 6,-72 -20,-16 -48,-41 -46,-49z"/>
  <path class="fil1" d="M336 1333c3,-8 45,-10 68,-13 9,-22 26,-62 34,-62 8,0 26,40 36,62 23,2 66,7 67,14 2,7 -20,27 -45,49 5,23 11,65 5,71 -5,6 -43,-17 -61,-29 -20,12 -58,33 -64,29 -7,-5 1,-46 7,-72 -20,-16 -49,-41 -47,-49z"/>
  <path class="fil0" d="M608 1333c2,-8 45,-10 68,-13 9,-22 26,-62 34,-62 7,0 26,40 36,62 23,2 65,7 67,14 1,7 -20,27 -45,49 4,23 10,65 5,71 -6,6 -43,-17 -62,-29 -19,12 -57,33 -63,29 -7,-5 1,-46 6,-72 -20,-16 -48,-41 -46,-49z"/>
  <path class="fil0" d="M890 1333c3,-8 46,-10 68,-13 10,-22 26,-62 34,-62 8,0 26,40 37,62 23,2 65,7 66,14 2,7 -20,27 -45,49 5,23 11,65 6,71 -6,6 -43,-17 -62,-29 -20,12 -57,33 -64,29 -7,-5 1,-46 7,-72 -20,-16 -49,-41 -47,-49z"/>
  <circle class="fil4" cx="686" cy="2242" r="158"/>
  <path class="fil0" d="M584 2211c2,-8 45,-11 68,-13 9,-22 26,-62 34,-62 8,0 26,40 36,62 23,2 66,7 67,14 2,7 -20,27 -45,48 4,24 10,65 5,72 -6,5 -43,-17 -62,-29 -19,12 -57,33 -63,29 -7,-5 1,-46 7,-72 -20,-16 -49,-41 -47,-49z"/>
  <circle class="fil4" cx="1082" cy="2242" r="158"/>
  <path class="fil0" d="M980 2211c2,-8 45,-11 68,-13 9,-22 26,-62 34,-62 7,0 26,40 36,62 23,2 65,7 67,14 1,7 -20,27 -45,48 4,24 10,65 5,72 -6,5 -43,-17 -62,-29 -19,12 -57,33 -64,29 -7,-5 2,-46 7,-72 -20,-16 -48,-41 -46,-49z"/>
  <circle class="fil3" cx="-527" cy="2242" r="158"/>
  <path class="fil2" d="M-629 2211c2,-8 45,-11 68,-13 9,-22 26,-62 34,-62 7,0 26,40 36,62 23,2 65,7 67,14 1,7 -20,27 -45,48 4,24 10,65 5,72 -6,5 -43,-17 -62,-29 -19,12 -57,33 -63,29 -7,-5 1,-46 6,-72 -20,-16 -48,-41 -46,-49z"/>
  <circle class="fil4" cx="281" cy="2805" r="158"/>
  <path class="fil0" d="M178 2774c3,-8 45,-10 68,-12 9,-23 26,-63 34,-63 8,0 26,40 36,62 23,3 66,8 67,14 2,7 -20,28 -45,49 5,24 11,65 5,71 -5,6 -42,-17 -61,-28 -20,11 -57,33 -64,29 -7,-5 1,-47 7,-72 -20,-16 -49,-41 -47,-50z"/>
  <circle class="fil4" cx="686" cy="2805" r="158"/>
  <path class="fil0" d="M584 2774c2,-8 45,-10 68,-12 9,-23 26,-63 34,-63 8,0 26,40 36,62 23,3 66,8 67,14 2,7 -20,28 -45,49 4,24 10,65 5,71 -6,6 -43,-17 -62,-28 -19,11 -57,33 -63,29 -7,-5 1,-47 7,-72 -20,-16 -49,-41 -47,-50z"/>
  <circle class="fil4" cx="1082" cy="2805" r="158"/>
  <path class="fil0" d="M980 2774c2,-8 45,-10 68,-12 9,-23 26,-63 34,-63 7,0 26,40 36,62 23,3 65,8 67,14 1,7 -20,28 -45,49 4,24 10,65 5,71 -6,6 -43,-17 -62,-28 -19,11 -57,33 -64,29 -7,-5 2,-47 7,-72 -20,-16 -48,-41 -46,-50z"/>
  <circle class="fil4" cx="-544" cy="2805" r="158"/>
  <path class="fil2" d="M-647 2774c3,-8 45,-10 68,-12 9,-23 26,-63 34,-63 8,0 26,40 36,62 23,3 66,8 67,14 2,7 -20,28 -45,49 5,24 11,65 5,71 -5,6 -42,-17 -61,-28 -20,11 -58,33 -64,29 -7,-5 1,-47 7,-72 -20,-16 -49,-41 -47,-50z"/>
  <circle class="fil4" cx="-139" cy="2805" r="158"/>
  <path class="fil2" d="M-241 2774c2,-8 45,-10 68,-12 9,-23 26,-63 34,-63 8,0 26,40 36,62 23,3 65,8 67,14 2,7 -20,28 -45,49 4,24 10,65 5,71 -6,6 -43,-17 -62,-28 -19,11 -57,33 -63,29 -7,-5 1,-47 6,-72 -19,-16 -48,-41 -46,-50z"/>
  <circle class="fil3" cx="-114" cy="1796" r="158"/>
  <path class="fil2" d="M-217 1765c3,-8 46,-10 68,-12 10,-23 26,-63 34,-63 8,0 26,40 37,62 23,3 65,8 66,14 2,7 -20,28 -45,49 5,24 11,65 6,71 -6,6 -43,-17 -62,-28 -20,11 -57,33 -64,29 -7,-5 1,-47 7,-72 -20,-16 -49,-41 -47,-50z"/>
  <circle class="fil3" cx="281" cy="1796" r="158"/>
  <path class="fil0" d="M178 1765c3,-8 45,-10 68,-12 9,-23 26,-63 34,-63 8,0 26,40 36,62 23,3 66,8 67,14 2,7 -20,28 -45,49 5,24 11,65 5,71 -5,6 -42,-17 -61,-28 -20,11 -57,33 -64,29 -7,-5 1,-47 7,-72 -20,-16 -49,-41 -47,-50z"/>
  <circle class="fil3" cx="686" cy="1796" r="158"/>
  <path class="fil0" d="M584 1765c2,-8 45,-10 68,-12 9,-23 26,-63 34,-63 8,0 26,40 36,62 23,3 66,8 67,14 2,7 -20,28 -45,49 4,24 10,65 5,71 -6,6 -43,-17 -62,-28 -19,11 -57,33 -63,29 -7,-5 1,-47 7,-72 -20,-16 -49,-41 -47,-50z"/>
  <circle class="fil3" cx="1082" cy="1796" r="158"/>
  <path class="fil0" d="M980 1765c2,-8 45,-10 68,-12 9,-23 26,-63 34,-63 7,0 26,40 36,62 23,3 65,8 67,14 1,7 -20,28 -45,49 4,24 10,65 5,71 -6,6 -43,-17 -62,-28 -19,11 -57,33 -64,29 -7,-5 2,-47 7,-72 -20,-16 -48,-41 -46,-50z"/>
  <circle class="fil3" cx="-527" cy="1796" r="158"/>
  <path class="fil2" d="M-629 1765c2,-8 45,-10 68,-12 9,-23 26,-63 34,-63 7,0 26,40 36,62 23,3 65,8 67,14 1,7 -20,28 -45,49 4,24 10,65 5,71 -6,6 -43,-17 -62,-28 -19,11 -57,33 -63,29 -7,-5 1,-47 6,-72 -20,-16 -48,-41 -46,-50z"/>
 </g>
</svg>
