<!-- Generated by IcoMoon.io -->
<svg version="1.1" xmlns="http://www.w3.org/2000/svg" width="23" height="32" viewBox="0 0 23 32">
<title>cut</title>
<path fill="#bfbfbf" d="M12.534 14.517l-1.569-0.529-0.62-5.639c-0.091-0.511-0.365-1.004-0.803-1.35-0.42-0.347-0.922-0.502-1.423-0.502l-0.237 0.027 0.712 6.661-6.342-2.153-0.082 0.228c-0.11 0.493-0.064 1.022 0.183 1.506 0.246 0.502 0.657 0.876 1.141 1.077l5.365 1.825 0.182 1.697c0.803 0.064 1.615 0.228 2.445 1.478l-0.255-2.363 2.117 0.712c-0.794-0.785-0.94-1.697-0.812-2.674zM10.381 15.411c-0.237 0.182-0.566 0.146-0.748-0.082s-0.146-0.566 0.082-0.748c0.228-0.182 0.566-0.146 0.748 0.082s0.146 0.566-0.082 0.748z"></path>
<path fill="#4a8cba" d="M9.906 18.322c-0.237-0.119-0.557-0.21-0.785-0.219-0.128-0.009-0.246-0.009-0.374 0-1.46 0.155-2.464 1.934-2.245 3.978 0.21 2.044 1.569 3.568 3.029 3.413s2.464-1.934 2.245-3.978c-0.155-1.214-0.657-2.528-1.871-3.194zM16.038 18.112c1.944 0.657 3.896 0.064 4.371-1.332 0.465-1.387-0.73-3.048-2.674-3.705v0c-1.944-0.657-3.905-0.064-4.371 1.323-0.465 1.652 1.077 3.203 2.674 3.714zM10.198 21.689c0.091 0.922-0.164 1.615-0.447 1.962 0 0 0 0 0 0-0.091 0.11-0.228 0.246-0.383 0.265-0.173 0.018-0.411-0.119-0.63-0.356-0.347-0.392-0.584-0.995-0.657-1.642-0.1-0.922 0.164-1.615 0.447-1.962 0.091-0.11 0.228-0.246 0.383-0.265 0.173-0.018 0.411 0.11 0.62 0.356 0.356 0.392 0.593 0.995 0.666 1.642v0zM18.684 15.585c0.192 0.265 0.274 0.52 0.21 0.693-0.046 0.146-0.21 0.256-0.338 0.319 0 0 0 0 0 0-0.401 0.192-1.131 0.301-2.007 0-0.62-0.21-1.159-0.575-1.46-0.995-0.192-0.265-0.274-0.52-0.219-0.693 0.055-0.146 0.219-0.255 0.347-0.319 0.401-0.192 1.131-0.301 2.007 0 0.62 0.21 1.15 0.575 1.46 0.995v0z"></path>
</svg>
