<!-- Generated by IcoMoon.io -->
<svg version="1.1" xmlns="http://www.w3.org/2000/svg" width="23" height="32" viewBox="0 0 23 32">
<title>edit</title>
<path fill="#f5bf5a" d="M4.513 19.399l-0.274 1.241c1.277 0.319 2.062 1.168 2.181 2.491l1.496-0.338 8.97-8.979-3.394-3.394-8.979 8.979zM14.195 13.55l-6.789 6.789-0.456-0.447 6.798-6.798 0.447 0.456z"></path>
<path fill="#eb9e92" d="M16.649 8.24c1.341 0 2.427 1.086 2.427 2.427 0 0.547-0.183 1.049-0.484 1.451l-1.277 1.277-3.431-3.367 1.305-1.305c0.411-0.301 0.912-0.484 1.46-0.484v0z"></path>
<path fill="#757575" d="M4.185 20.923l-0.639 2.847 2.655-0.593c-0.055-1.086-1.013-2.144-2.017-2.254z"></path>
</svg>
