<!-- Generated by IcoMoon.io -->
<svg version="1.1" xmlns="http://www.w3.org/2000/svg" width="23" height="32" viewBox="0 0 23 32">
<title>file_download</title>
<path fill="#636363" d="M15.691 14.289l-1.022 0.046v-1.633c-5.119-0.1-4.079 0.839-4.206-4.206l-6.314-0.009v12.601l5.958 0.009 0.876 1.077c-2.445 0-5.201-0.018-6.050-0.018-1.56 0-1.825 0.119-1.816-1.533v-10.256c0-1.314-0.237-2.582 0.538-2.847 0.401-0.146 5.876-0.055 6.807-0.055 1.624 0 1.661 0.1 2.5 0.94 0.584 0.584 1.113 1.113 1.688 1.688 0.748 0.748 1.049 0.858 1.040 2.363v1.834zM11.494 11.634l3.093 0.018c-0.128-0.456-1.141-1.314-1.469-1.642-0.347-0.356-1.131-1.296-1.606-1.433l-0.018 3.057z"></path>
<path fill="#5da2e3" d="M13.383 19.545c-0.502 0.027-2.199-0.073-2.509 0.082-0.849 0.42 0.319 1.332 0.538 1.551 0.894 0.885 1.725 1.725 2.619 2.619 1.131 1.131 0.839 1.15 2.829-0.839l2.646-2.683c0.347-1.104-1.962-0.611-2.783-0.748 0-5.046 0.347-4.435-1.679-4.435-1.542 0-1.661-0.228-1.661 1.378 0 1.022 0 2.044 0 3.075z"></path>
</svg>
