<!-- Generated by IcoMoon.io -->
<svg version="1.1" xmlns="http://www.w3.org/2000/svg" width="23" height="32" viewBox="0 0 23 32">
<title>folder_download</title>
<path fill="#f5ce5a" d="M2.26 20.393l3.413-3.997c0.064-0.073 0.091-0.119 0.164-0.192 0.411-0.411 1.040-0.803 1.588-1.031 0.757-0.31 1.323-0.392 2.208-0.392h7.82c0-0.821 0.11-1.962-0.246-2.61-0.31-0.547-0.867-1.077-1.688-1.177-0.383-0.037-3.577-0.018-4.243-0.018-0.329 0-1.159 0.046-1.433-0.009 0-0.675-0.091-1.314-0.584-1.807-0.082-0.073-0.119-0.119-0.173-0.173-0.602-0.547-1.223-0.538-2.226-0.547-0.474 0-2.418-0.027-2.737 0.027-0.42 0.073-0.712 0.21-0.976 0.411-1.104 0.849-0.903 1.871-0.903 3.23 0 0.922 0 1.843 0 2.765s0 1.843 0 2.765c0 0.465 0 0.922 0 1.387 0 0.356-0.046 1.049 0.018 1.369z"></path>
<path fill="#f5ce5a" d="M8.921 16.078c-1.378 0.192-2.071 0.83-2.792 1.743-0.575 0.73-1.551 1.752-2.099 2.464l-0.684 0.812c-0.173 0.192-0.593 0.703-0.274 1.049 0.256 0.283 0.821 0.246 1.25 0.246h9.079c0.474 0 1.049 0.027 1.506-0.027 0.83-0.091 1.633-0.538 2.071-0.949 0.256-0.237 0.474-0.52 0.712-0.794 0.894-1.040 1.907-2.29 2.774-3.276 0.183-0.192 0.593-0.703 0.283-1.049-0.256-0.283-0.839-0.246-1.259-0.246-1.195 0-10.074-0.037-10.566 0.027z"></path>
<path fill="#5da2e3" d="M14.888 19.727c-0.447 0.027-1.962-0.064-2.236 0.073-0.748 0.374 0.283 1.186 0.474 1.378 0.794 0.794 1.542 1.542 2.336 2.336 1.013 1.004 0.748 1.022 2.518-0.748l2.354-2.391c0.31-0.976-1.752-0.538-2.482-0.657 0-4.489 0.31-3.951-1.487-3.951-1.369 0-1.478-0.201-1.478 1.223 0 0.912 0 1.825 0 2.737z"></path>
</svg>
