<!-- Generated by IcoMoon.io -->
<svg version="1.1" xmlns="http://www.w3.org/2000/svg" width="1195" height="1024" viewBox="0 0 1195 1024">
<title>cut</title>
<g id="icomoon-ignore">
</g>
<path fill="#3cb542" d="M122.822 766.314l174.841-204.222c2.89-3.853 4.335-6.262 7.706-9.633 21.675-21.193 53.464-40.941 81.4-52.982 39.014-15.895 67.432-20.23 112.707-20.23h400.256c0-41.904 5.78-100.184-13.005-133.419-15.413-27.454-44.312-54.909-86.216-59.725-19.748-2.408-183.029-0.963-216.745-0.963-16.858 0-59.244 1.927-73.212-0.482 0-34.679-4.817-67.432-30.344-92.478-3.372-3.372-5.298-5.78-8.67-8.67-30.826-27.936-62.134-27.936-113.671-27.936-24.083 0-123.786-1.445-139.68 0.963-21.675 3.853-36.606 10.596-50.092 21.193-56.835 43.349-46.239 95.368-46.239 164.726 0 47.202 0 94.405 0 141.607s0 94.405 0 141.607c0 23.601 0 47.202 0 70.803 0 17.821-1.927 53.464 0.963 69.84z"></path>
<path fill="#3cb542" d="M463.353 545.716c-70.322 9.633-105.964 42.386-143.052 89.106-29.381 37.087-78.992 89.588-106.928 126.194l-35.161 41.422c-8.67 9.633-30.344 35.643-13.968 53.464 13.486 14.45 42.386 12.523 64.060 12.523h464.316c24.083 0 53.464 1.445 76.583-0.963 42.867-4.817 83.326-27.454 105.964-48.647 13.005-12.523 24.083-26.491 36.124-40.941 46.239-52.982 97.776-117.042 142.088-167.135 9.151-10.115 30.344-36.124 14.45-53.945-13.005-14.45-42.867-12.523-64.542-12.523-61.17 0-514.408-1.927-539.936 1.445z"></path>
</svg>
