<!-- Generated by IcoMoon.io -->
<svg version="1.1" xmlns="http://www.w3.org/2000/svg" width="23" height="32" viewBox="0 0 23 32">
<title>folder_add</title>
<path fill="#f5ce5a" d="M1.758 20.038l3.276-3.823c0.055-0.073 0.082-0.11 0.146-0.183 0.401-0.392 1.004-0.766 1.524-0.985 0.721-0.301 1.259-0.374 2.108-0.374h7.482c0-0.785 0.1-1.871-0.246-2.5-0.283-0.511-0.821-1.031-1.606-1.113-0.374-0.046-3.422-0.018-4.060-0.018-0.319 0-1.104 0.037-1.369-0.018 0.009-0.648-0.082-1.25-0.557-1.725-0.073-0.064-0.11-0.11-0.164-0.164-0.575-0.52-1.168-0.52-2.126-0.52-0.456 0-2.318-0.027-2.619 0.027-0.401 0.064-0.684 0.192-0.931 0.383-1.068 0.812-0.876 1.788-0.876 3.084 0 0.885 0 1.77 0 2.646 0 0.885 0 1.77 0 2.646 0 0.447 0 0.885 0 1.323 0 0.347-0.036 1.013 0.018 1.314z"></path>
<path fill="#f5ce5a" d="M8.136 15.913c-1.323 0.173-1.989 0.794-2.674 1.67-0.547 0.684-1.478 1.67-2.007 2.354l-0.657 0.766c-0.164 0.192-0.566 0.675-0.256 1.013 0.246 0.265 0.785 0.228 1.195 0.228h8.678c0.456 0 1.004 0.027 1.442-0.018 0.794-0.091 1.56-0.52 1.98-0.912 0.246-0.228 0.447-0.493 0.675-0.757 0.858-0.995 1.825-2.19 2.655-3.13 0.173-0.192 0.566-0.675 0.265-1.004-0.246-0.274-0.803-0.237-1.195-0.237-1.15 0-9.626-0.037-10.101 0.027z"></path>
<path fill="#199c17" d="M15.354 12.957c0.766-0.064 1.569 0.073 2.226 0.329 0.474 0.192 1.268 0.675 1.597 1.031 0.274 0.292 0.401 0.411 0.639 0.703 1.725 2.126 1.195 5.238-0.31 6.679-0.137 0.137-0.201 0.21-0.338 0.347-0.684 0.712-2.108 1.287-3.184 1.341-3.038 0.146-5.32-2.071-5.52-4.918-0.128-1.807 0.557-2.856 1.369-3.823 0.894-1.049 2.090-1.569 3.522-1.688zM14.788 17.264c-0.329 0.073-1.113 0.027-1.487 0.027-0.693 0-0.693 0.173-0.693 0.839 0.009 1.469 0.438 0.666 2.172 0.922 0.064 1.989-0.274 2.163 0.867 2.163 1.296 0 0.776-0.31 0.903-2.181 2.044-0.046 2.181 0.265 2.172-0.849 0-1.214-0.265-0.821-2.181-0.903 0-0.502 0.009-1.004 0.009-1.506-0.009-0.666-0.201-0.666-0.839-0.666-1.131 0-0.922 0.128-0.922 2.153z"></path>
<path fill="#fff" d="M14.788 17.264c-0.329 0.073-1.113 0.027-1.487 0.027-0.693 0-0.693 0.173-0.693 0.839 0.009 1.469 0.438 0.666 2.172 0.922 0.064 1.989-0.274 2.163 0.867 2.163 1.296 0 0.776-0.31 0.903-2.181 2.044-0.046 2.181 0.265 2.172-0.849 0-1.214-0.265-0.821-2.181-0.903 0-0.502 0.009-1.004 0.009-1.506-0.009-0.666-0.201-0.666-0.839-0.666-1.131 0-0.922 0.128-0.922 2.153z"></path>
</svg>
