<!-- Generated by IcoMoon.io -->
<svg version="1.1" xmlns="http://www.w3.org/2000/svg" width="1195" height="1024" viewBox="0 0 1195 1024">
<title>cut</title>
<g id="icomoon-ignore">
</g>
<path fill="#787878" d="M344.384 129.565c25.528-2.89 343.421-0.963 377.136-0.963 62.615 0 118.969-7.225 167.135 22.156 33.716 20.711 68.395 60.207 74.175 115.597 2.408 26.973 0.482 343.421 0.482 379.063 0 87.18 11.56 158.946-68.877 214.818-17.34 12.523-41.904 22.156-68.877 25.046-30.826 2.89-338.604 0.963-378.1 0.963-63.579 0-116.079 7.706-167.135-22.156-39.014-23.119-68.877-67.432-73.693-115.597-2.89-28.899-0.963-65.987-0.963-95.368v-283.214c0-63.097-7.225-119.451 23.119-167.616 25.528-40.459 65.505-66.95 115.597-72.73zM350.164 197.96c-40.459 4.817-72.73 38.532-75.138 79.955-1.927 23.601-0.482 52.019-0.482 76.102 0 26.009 0 52.019 0 78.51 0 26.009-1.445 289.957 0.482 308.741 2.89 22.156 11.078 36.606 25.528 51.056 33.716 34.198 77.065 25.046 130.047 25.046 43.349 0 369.43 1.927 389.178-0.482 39.496-4.817 71.767-38.532 74.657-79.473 1.927-29.381 0.482-118.969 0.482-154.611 0-26.009 1.445-290.438-0.963-309.223-1.927-17.34-6.743-26.973-15.413-39.977-32.753-46.721-83.808-36.124-139.68-36.124-43.349 0-369.43-1.927-388.696 0.482zM355.462 473.949c-10.115 2.89-12.041 10.596-12.041 22.638 0 7.706-0.482 27.936 1.445 33.716 5.298 15.895 32.753 11.56 57.317 11.56 41.904 0 405.072 1.445 412.297-0.963 9.633-2.89 11.078-11.56 11.078-22.638 0.482-31.308 4.817-45.276-24.083-45.276-51.056 0-436.38-1.927-446.013 0.963z"></path>
</svg>
