<?xml version="1.0" encoding="UTF-8"?>
<!DOCTYPE svg PUBLIC "-//W3C//DTD SVG 1.1//EN" "http://www.w3.org/Graphics/SVG/1.1/DTD/svg11.dtd">
<!-- Creator: CorelDRAW X7 -->
<svg xmlns="http://www.w3.org/2000/svg" xml:space="preserve" width="1217px" height="1217px" version="1.1" style="shape-rendering:geometricPrecision; text-rendering:geometricPrecision; image-rendering:optimizeQuality; fill-rule:evenodd; clip-rule:evenodd"
viewBox="0 0 1217 1217"
 xmlns:xlink="http://www.w3.org/1999/xlink">
 <defs>
  <style type="text/css">
   <![CDATA[
    .fil0 {fill:red}
   ]]>
  </style>
 </defs>
 <g id="Слой_x0020_1">
  <metadata id="CorelCorpID_0Corel-Layer"/>
  <g id="icomoon-ignore">
  </g>
  <path class="fil0" d="M327 609c-16,26 -195,199 -231,236 -51,50 -97,80 -95,140 2,56 71,109 99,136 48,48 125,150 213,60 21,-22 38,-39 59,-60l231 -233c31,12 257,248 295,287 90,92 149,15 216,-51 169,-168 127,-159 -107,-393 -30,-30 -99,-91 -118,-122 14,-27 240,-244 287,-292 91,-91 8,-154 -59,-220 -132,-130 -146,-129 -274,0 -37,38 -209,220 -239,233l-231 -233c-125,-125 -138,-134 -274,0 -54,54 -153,127 -62,217 55,55 275,268 290,295z"/>
 </g>
</svg>
