<!-- Generated by IcoMoon.io -->
<svg version="1.1" xmlns="http://www.w3.org/2000/svg" width="23" height="32" viewBox="0 0 23 32">
<title>search</title>
<path d="M13.711 21.452c-0.374 0.164-0.712 0.438-1.177 0.639-0.438 0.192-0.794 0.338-1.296 0.456-1.004 0.256-2.153 0.274-3.175 0.1-0.949-0.164-1.88-0.566-2.582-0.995-0.995-0.602-1.204-0.858-1.889-1.624-2.518-2.82-2.263-7.601 0.456-10.247 4.298-4.17 11.798-1.989 12.829 4.051 0.356 2.108-0.201 4.27-1.204 5.621 0.301 0.383 0.885 0.903 1.259 1.277l2.528 2.555c1.004 1.287-0.748 2.956-1.953 1.898-0.794-0.693-3.312-3.385-3.796-3.732zM8.857 10.375c-2.528 0.338-4.526 2.491-4.234 5.365 0.155 1.56 0.931 2.409 1.688 3.139 1.259 1.195 3.677 1.542 5.475 0.52 1.569-0.894 2.628-2.683 2.427-4.781-0.237-2.4-2.564-4.617-5.356-4.243z"></path>
</svg>
