<!-- Generated by IcoMoon.io -->
<svg version="1.1" xmlns="http://www.w3.org/2000/svg" width="23" height="32" viewBox="0 0 23 32">
<title>view</title>
<path fill="#5bbfe3" d="M11.313 10.344c-3.961 0-7.38 2.28-9.061 5.642 1.681 3.391 5.101 5.671 9.061 5.671s7.38-2.28 9.061-5.671c-1.681-3.362-5.101-5.642-9.061-5.642zM15.786 13.336c1.054 0.684 1.966 1.596 2.65 2.65-0.684 1.083-1.596 1.995-2.65 2.679-1.339 0.855-2.878 1.311-4.474 1.311s-3.134-0.456-4.474-1.311c-1.054-0.684-1.966-1.596-2.65-2.679 0.684-1.054 1.596-1.966 2.65-2.65 0.085-0.028 0.142-0.085 0.199-0.114-0.171 0.484-0.256 0.997-0.256 1.539 0 2.508 2.023 4.531 4.531 4.531s4.531-2.023 4.531-4.531c0-0.541-0.085-1.054-0.256-1.539 0.057 0.028 0.114 0.085 0.199 0.114v0 0zM11.313 14.305c0 0.94-0.769 1.681-1.71 1.681s-1.681-0.741-1.681-1.681c0-0.94 0.741-1.71 1.681-1.71s1.71 0.769 1.71 1.71z"></path>
<path fill="#787777" d="M11.313 21.656c-3.961 0-7.38-2.28-9.061-5.671 1.681-3.362 5.101-5.642 9.061-5.642s7.38 2.28 9.061 5.642c-1.681 3.391-5.101 5.671-9.061 5.671zM15.786 18.664c1.054-0.684 1.966-1.596 2.65-2.679-0.684-1.054-1.596-1.966-2.65-2.65-1.339-0.855-2.878-1.311-4.474-1.311s-3.134 0.456-4.474 1.311c-1.054 0.684-1.966 1.596-2.65 2.65 0.684 1.083 1.596 1.995 2.65 2.679 2.479 1.539 5.756 1.966 8.947 0v0 0z"></path>
</svg>
