<!-- Generated by IcoMoon.io -->
<svg version="1.1" xmlns="http://www.w3.org/2000/svg" width="23" height="32" viewBox="0 0 23 32">
<title>file_upload</title>
<path fill="#636363" d="M15.773 14.371c-0.338-0.201-0.684-0.228-1.049 0.018 0-0.62 0-1.131 0-1.743-5.201-0.1-4.143 0.858-4.279-4.279l-6.424-0.009v12.811l8.459 0.018v1.095c-2.719 0.009-6.615-0.018-7.656-0.018-1.588 0-1.852 0.11-1.852-1.569v-10.42c0-1.341-0.237-2.628 0.547-2.902 0.411-0.146 5.986-0.055 6.935-0.055 1.652 0 1.679 0.1 2.546 0.958 0.584 0.593 1.122 1.131 1.706 1.715 0.766 0.757 1.068 0.876 1.068 2.409v1.971zM11.494 11.561l3.148 0.018c-0.137-0.465-1.159-1.341-1.487-1.67-0.356-0.365-1.159-1.323-1.642-1.46l-0.018 3.111z"></path>
<path fill="#5da2e3" d="M16.823 20.165c0.511-0.027 2.236 0.073 2.555-0.082 0.858-0.429-0.328-1.35-0.547-1.579-0.912-0.903-1.761-1.761-2.674-2.664-1.15-1.15-0.849-1.168-2.874 0.858l-2.692 2.728c-0.356 1.113 2.007 0.62 2.838 0.757 0 5.128-0.356 4.508 1.706 4.508 1.56 0 1.688 0.237 1.688-1.396-0.009-1.040 0-2.090 0-3.13z"></path>
</svg>
