<!-- Generated by IcoMoon.io -->
<svg version="1.1" xmlns="http://www.w3.org/2000/svg" width="1195" height="1024" viewBox="0 0 1195 1024">
<title>cut</title>
<g id="icomoon-ignore">
</g>
<path fill="#787878" d="M343.902 130.047c23.601-2.408 153.167-0.963 187.364-0.963 63.097 0 126.194 0 189.291 0 62.134 0 118.487-7.225 166.653 22.156 33.716 20.711 67.913 60.207 73.693 115.597 2.408 26.491 0.963 342.457 0.963 378.1 0 61.17 7.225 120.414-23.119 166.653-25.046 39.496-65.505 67.913-114.634 72.73-30.826 2.89-338.122 0.963-377.136 0.963-94.405 0-155.575 11.56-215.3-68.877-34.198-45.757-26.009-108.373-26.009-163.763v-282.732c0-62.615-7.706-118.969 22.638-167.135 25.528-40.459 65.505-66.95 115.597-72.73zM349.682 198.442c-40.459 4.817-72.248 38.532-75.138 79.473-1.445 23.601-0.482 52.019-0.482 76.102 0 26.009 0.482 52.019 0 78.028 0 26.491-1.445 289.475 0.963 308.26 2.408 22.638 10.596 36.606 25.046 51.056 33.716 34.198 77.065 25.528 129.565 25.046 43.831 0 368.467 1.927 388.214-0.482 39.496-4.817 72.248-38.532 75.138-79.473 2.89-47.684 0-105.483 0-154.13 0-26.009 1.445-289.957-0.482-308.26-4.817-39.496-37.569-73.212-78.51-76.102-28.418-1.927-119.451 0-154.611 0-26.973 0-290.92-1.927-309.705 0.482zM549.569 472.023c-10.115 2.408-156.056 0.963-179.176 0.963-28.418 0-27.454 7.706-27.454 34.198 0 41.422 1.445 34.198 86.698 34.198 22.638 0 104.038-2.89 119.932 0.963v177.249c-0.482 28.899 7.225 27.936 33.234 27.936 42.386 0 35.161 0.963 35.161-85.735 0-39.496 0.482-79.955 0-119.451 12.041-2.89 147.387-0.963 179.176-0.963 27.936 0 26.973-7.706 26.973-34.198 0-41.422-0.482-34.198-86.698-34.198-17.821 0-109.817 0.963-119.451-0.963 0-39.014 0-78.51 0-118.006 0-19.748 0-39.496 0-59.244 0-28.418-6.743-27.936-33.716-27.936-41.904 0-34.679-0.482-34.679 85.735 0 39.977 0 79.955 0 119.451z"></path>
</svg>
