<!-- Generated by IcoMoon.io -->
<svg version="1.1" xmlns="http://www.w3.org/2000/svg" width="23" height="32" viewBox="0 0 23 32">
<title>select</title>
<path fill="#83d68f" d="M10.59 16.315c-0.219-0.283-0.602-0.62-0.876-0.894l-1.843-1.861c-0.365-0.374-0.903-0.347-1.25 0.027-0.675 0.739-1.752 1.287-1.259 2.172 0.137 0.228 3.203 3.285 3.641 3.705 0.356 0.338 0.529 0.392 0.94 0.903 0.265 0.338 0.849 0.502 1.259 0.155 0.137-0.11 0.319-0.347 0.447-0.474 0.164-0.173 0.292-0.292 0.465-0.465l0.958-0.894c0.63-0.639 1.214-1.223 1.852-1.852l4.553-4.571c0.794-0.794 1.049-1.223-0.192-2.226-0.274-0.219-0.593-0.739-1.040-0.803-0.593-0.082-0.849 0.365-1.104 0.63l-1.852 1.843c-0.091 0.082-0.146 0.137-0.228 0.219-0.1 0.1-0.164 0.137-0.255 0.228l-0.912 0.94c-0.155 0.155-0.31 0.301-0.474 0.447l-0.922 0.931c-0.429 0.42-1.588 1.652-1.907 1.843z"></path>
<path fill="#c9c9c9" d="M5.18 8.55c-1.615 0.228-2.664 1.46-2.674 3.248 0 1.971 0.009 3.942 0.009 5.922 0 2.281-0.374 3.586 1.004 4.936 1.141 1.113 3.285 0.794 5.128 0.794 1.907 0 3.969 0.073 5.858-0.009 1.624-0.064 2.883-1.36 2.929-3.002 0.009-0.401 0.1-3.44-0.082-3.65-0.392-0.429-1.223 0.757-1.232 0.757-0.11 0.329-0.009 2.391-0.046 2.938-0.064 0.821-0.602 1.423-1.36 1.569-0.593 0.119-7.564 0.046-8.778 0.046-0.867 0-1.56-0.183-1.934-1.031-0.256-0.593-0.137-7.19-0.137-8.714 0-2.701 1.095-2.482 3.358-2.482l7.391 0.027c0.675 0.082 0.648-0.073 0.976-0.411 0.858-0.858-0.912-0.967-1.579-0.967-1.268 0-8.185-0.055-8.833 0.027z"></path>
</svg>
