<?xml version="1.0" encoding="UTF-8"?>
<!DOCTYPE svg PUBLIC "-//W3C//DTD SVG 1.1//EN" "http://www.w3.org/Graphics/SVG/1.1/DTD/svg11.dtd">
<!-- Creator: CorelDRAW X7 -->
<svg xmlns="http://www.w3.org/2000/svg" xml:space="preserve" width="2170px" height="2020px" version="1.1" style="shape-rendering:geometricPrecision; text-rendering:geometricPrecision; image-rendering:optimizeQuality; fill-rule:evenodd; clip-rule:evenodd"
viewBox="0 0 2170 2020"
 xmlns:xlink="http://www.w3.org/1999/xlink">
 <defs>
  <style type="text/css">
   <![CDATA[
    .fil1 {fill:#080808}
    .fil0 {fill:#FFE500}
   ]]>
  </style>
 </defs>
 <g id="Слой_x0020_1">
  <metadata id="CorelCorpID_0Corel-Layer"/>
  <g id="icomoon-ignore">
  </g>
  <path class="fil0" d="M1051 6c-105,26 -146,166 -225,302 -64,111 -122,223 -184,337 -61,111 -127,226 -184,338 -76,149 -444,789 -455,850 -15,81 38,147 93,168 72,28 1307,14 1557,14 124,0 404,27 474,-48 102,-110 1,-215 -75,-364 -58,-111 -123,-226 -184,-338 -179,-326 -372,-693 -552,-1013 -68,-119 -118,-284 -265,-246z"/>
  <path class="fil1" d="M1283 1913c26,-48 15,-271 10,-282 -21,-43 -276,-23 -288,-15 -38,24 -13,279 -12,280 18,35 95,23 132,23 51,0 113,3 158,-6z"/>
  <path class="fil1" d="M998 1395c43,13 165,6 226,7 34,0 45,5 62,-18 19,-24 32,-650 28,-663 -14,-48 -122,-31 -175,-31 -200,0 -174,-29 -164,229 3,76 2,431 23,476z"/>
 </g>
</svg>
