<!-- Generated by IcoMoon.io -->
<svg version="1.1" xmlns="http://www.w3.org/2000/svg" width="23" height="32" viewBox="0 0 23 32">
<title>copy</title>
<path fill="#636363" d="M8.848 20.932c-1.478 0-2.956 0-4.435 0-0.776 0-1.369 0.091-1.633-0.538-0.183-0.429-0.082-5.712-0.091-6.405 0-1.697 0.748-2.071 1.506-2.829 0.739-0.748 1.423-1.433 2.172-2.172 0.922-0.922 1.232-1.588 2.746-1.597 4.508-0.009 4.654-0.411 4.654 1.889 0 0.721 0 1.442 0 2.163 0.693-0.155 0.301-0.374 1.843-0.365 4.425 0.009 4.307-0.374 4.307 2.236 0 1.022 0.128 10.356-0.11 10.84-0.274 0.557-0.912 0.474-1.661 0.474-1.058-0.009-8.258 0.064-8.659-0.046-0.985-0.265-0.593-2.564-0.639-3.65zM10.079 17.245v6.15l0.31 0.009h8.13l0.201-0.027v-11.013l-3.732-0.037c0 6.141 0.803 4.69-4.909 4.918zM10.928 15.986l0.274 0.037 2.601-0.009-0.018-2.819c-0.383 0.228-1.122 1.049-1.451 1.387-0.484 0.474-0.967 0.931-1.405 1.405zM3.902 13.55l0.009 6.159h4.936c0.055-1.086-0.182-2.528 0.246-3.431 0.255-0.566 2.044-2.217 2.674-2.856 0.292-0.292 0.757-0.547 0.766-1.077 0.037-1.214 0-2.491 0-3.714l-3.695-0.018c0 6.296 0.748 4.626-4.936 4.936zM4.751 12.318l0.255 0.027 2.318-0.009 0.292-0.009 0.009-2.838-2.874 2.829z"></path>
</svg>
