<!-- Generated by IcoMoon.io -->
<svg version="1.1" xmlns="http://www.w3.org/2000/svg" width="23" height="32" viewBox="0 0 23 32">
<title>folder_delete</title>
<path fill="#f5ce5a" d="M1.795 20.004l3.277-3.79c0.057-0.085 0.085-0.114 0.142-0.171 0.399-0.399 0.997-0.769 1.51-0.997 0.712-0.285 1.254-0.37 2.109-0.37h7.437c0-0.769 0.114-1.852-0.256-2.479-0.285-0.513-0.798-1.026-1.596-1.111-0.37-0.057-3.391-0.028-4.046-0.028-0.313 0-1.083 0.028-1.339 0 0-0.655-0.085-1.254-0.57-1.738-0.057-0.057-0.114-0.114-0.171-0.142-0.57-0.541-1.14-0.541-2.109-0.541-0.456 0-2.308-0.028-2.593 0.028-0.399 0.085-0.684 0.199-0.94 0.399-1.054 0.798-0.855 1.767-0.855 3.077 0 0.855 0 1.738 0 2.622s0 1.767 0 2.622c0 0.456 0 0.883 0 1.339 0 0.313-0.028 0.997 0 1.282z"></path>
<path fill="#f5ce5a" d="M8.15 15.9c-1.311 0.171-1.966 0.798-2.65 1.653-0.541 0.712-1.482 1.681-1.995 2.365l-0.655 0.769c-0.171 0.171-0.57 0.655-0.256 0.997 0.228 0.256 0.769 0.228 1.197 0.228h8.634c0.427 0 0.997 0.029 1.425-0.029 0.798-0.085 1.539-0.513 1.966-0.912 0.256-0.228 0.456-0.484 0.684-0.741 0.855-0.997 1.795-2.194 2.622-3.106 0.171-0.199 0.57-0.684 0.285-1.026-0.256-0.256-0.798-0.228-1.197-0.228-1.14 0-9.574-0.028-10.059 0.028z"></path>
<path fill="#d91414" d="M15.33 12.965c1.083-0.085 2.251 0.199 3.077 0.798 0.627 0.427 0.912 0.684 1.368 1.254 1.71 2.109 1.197 5.215-0.313 6.639-0.541 0.513-0.712 0.741-1.482 1.14-3.391 1.681-7.238-0.57-7.523-4.36-0.114-1.795 0.57-2.821 1.368-3.79 0.313-0.342 0.912-0.883 1.482-1.14 0.684-0.342 1.168-0.484 2.023-0.541zM12.908 17.325c-0.342 0.114-0.313 0.256-0.313 0.684 0.028 1.254 0 0.997 1.966 0.997 0.57 0 3.619 0.057 3.875-0.029 0.37-0.142 0.313-1.339 0.114-1.567-0.256-0.256-1.368-0.142-1.795-0.142-0.57 0-3.59-0.057-3.847 0.057z"></path>
<path fill="#fff" d="M12.908 17.325c-0.342 0.114-0.313 0.256-0.313 0.684 0.028 1.254 0 0.997 1.966 0.997 0.57 0 3.619 0.057 3.875-0.029 0.37-0.142 0.313-1.339 0.114-1.567-0.256-0.256-1.368-0.142-1.795-0.142-0.57 0-3.59-0.057-3.847 0.057z"></path>
</svg>
