<!-- Generated by IcoMoon.io -->
<svg version="1.1" xmlns="http://www.w3.org/2000/svg" width="23" height="32" viewBox="0 0 23 32">
<title>grid</title>
<path fill="#636363" d="M3.136 19.207c-0.712 0.192-0.721 0.712-0.721 1.524 0 0.347-0.037 0.347-0.009 0.721 0.018 0.328 0.091 0.62 0.274 0.803 0.401 0.411 1.232 0.292 1.898 0.292 2.372 0 2.92 0.319 2.911-1.551 0-0.474 0.009-0.411-0.009-0.703-0.055-1.113-0.365-1.122-2.144-1.122-0.474 0-1.852-0.055-2.199 0.037z"></path>
<path fill="#636363" d="M9.459 9.070c-0.748 0.246-0.693 0.675-0.693 1.56 0 0.52 0 0.484 0.027 0.785 0.082 0.985 0.456 0.976 2.19 0.976 0.438 0 1.898 0.046 2.199-0.055 0.675-0.21 0.657-0.757 0.657-1.56 0-0.356 0.037-0.347 0.009-0.712-0.027-0.329-0.1-0.611-0.292-0.785-0.401-0.374-1.259-0.265-1.934-0.265-0.465 0-1.816-0.055-2.163 0.055z"></path>
<path fill="#636363" d="M15.81 14.152c-0.748 0.237-0.693 0.684-0.693 1.56 0 0.465 0 0.392 0.018 0.684 0.064 1.086 0.411 1.068 2.199 1.068 0.438 0 1.889 0.055 2.199-0.046 0.675-0.219 0.657-0.766 0.657-1.56 0-0.347 0.037-0.31 0.009-0.666-0.018-0.347-0.091-0.657-0.292-0.839-0.411-0.374-1.268-0.255-1.934-0.255-0.474 0-1.816-0.064-2.163 0.055z"></path>
<path fill="#636363" d="M3.108 9.070c-0.739 0.246-0.693 0.675-0.693 1.56 0 0.456 0 0.383 0.018 0.675 0.064 1.095 0.401 1.086 2.199 1.086 2.117 0 2.728 0.219 2.838-1.013 0.018-0.173 0.018 0.064 0.018-0.173 0-0.319 0.027-0.693 0.018-1.031-0.018-0.365-0.091-0.703-0.301-0.894-0.401-0.374-1.259-0.265-1.934-0.265-0.465 0-1.816-0.055-2.163 0.055z"></path>
<path fill="#8a8a8a" d="M15.81 9.070c-0.748 0.246-0.693 0.675-0.693 1.56 0 0.502 0 0.456 0.018 0.748 0.073 1.022 0.447 1.013 2.199 1.013 2.418 0 2.856 0.283 2.856-1.615 0-0.338 0.027-0.292 0.009-0.639-0.018-0.356-0.091-0.675-0.292-0.858-0.411-0.374-1.268-0.265-1.934-0.265-0.465 0-1.816-0.055-2.163 0.055z"></path>
<path fill="#8a8a8a" d="M3.108 14.152c-0.739 0.237-0.693 0.684-0.693 1.56 0 0.484 0 0.429 0.018 0.721 0.073 1.049 0.438 1.031 2.199 1.031 2.108 0 2.719 0.228 2.838-0.995 0.018-0.173 0.018-0.374 0.018-0.611 0-0.31 0.027-0.228 0.018-0.547-0.018-0.392-0.082-0.757-0.301-0.958-0.401-0.374-1.259-0.255-1.934-0.255-0.465 0-1.807-0.064-2.163 0.055z"></path>
<path fill="#8a8a8a" d="M9.486 19.207c-0.721 0.192-0.721 0.712-0.721 1.524 0 0.484 0 0.42 0.009 0.721 0.064 1.086 0.383 1.095 2.153 1.095 2.372 0 2.92 0.319 2.911-1.551 0-0.493 0.009-0.447-0.009-0.748-0.064-1.068-0.392-1.077-2.153-1.077-0.465 0-1.852-0.055-2.19 0.037z"></path>
<path fill="#636363" d="M15.837 19.207c-0.721 0.192-0.721 0.712-0.721 1.524 0 0.438 0 0.365 0.009 0.648 0.046 1.15 0.338 1.168 2.153 1.168 2.363 0 2.92 0.319 2.911-1.551 0-0.493 0.009-0.447-0.009-0.748-0.064-1.068-0.392-1.077-2.153-1.077-0.456 0-1.852-0.055-2.19 0.037z"></path>
<path fill="#8a8a8a" d="M9.459 14.152c-0.739 0.237-0.693 0.684-0.693 1.56 0 0.465 0 0.401 0.018 0.684 0.064 1.086 0.411 1.068 2.199 1.068 2.4 0 2.856 0.292 2.856-1.606 0-0.456 0-0.383-0.009-0.666-0.064-1.122-0.401-1.095-2.208-1.095-0.474 0-1.816-0.064-2.163 0.055z"></path>
</svg>
