<!-- Generated by IcoMoon.io -->
<svg version="1.1" xmlns="http://www.w3.org/2000/svg" width="23" height="32" viewBox="0 0 23 32">
<title>paste</title>
<path fill="#787878" d="M9.258 22.812c0-3.796 0.046-5.657 0-8.632 0-0.401 0.292-0.766 0.666-0.766 1.177 0 3.203 0 4.389 0 1.715 0 1.661 0.21 2.591 0.839 0.566 0.438 0.703 0.538 1.113 0.858 0.529 0.484 0.675 0.52 0.684 1.487 0.018 1.168 0 5.137 0 6.415 0 1.816 0.265 2.208-1.652 2.208h-6.36c-0.73 0-1.141 0.018-1.36-0.575-0.128-0.338-0.073-1.405-0.073-1.834zM10.454 24.025l7.081-0.018-0.009-6.916c-3.376-0.037-3.267 0.091-3.267-1.478v-1.131l-3.805-0.018v9.563zM15.436 16.059l2.099 0.027-2.099-1.551v1.524z"></path>
<path fill="#c79769" d="M15.664 12.729c-0.538-0.009-0.666-0.018-0.985-0.018-2.19 0-3.449 0-4.882 0.009-0.639 0-1.296 0.584-1.296 1.36-0.009 1.752-0.009 3.166 0 8.495-1.195 0-2.272-0.009-3.467 0-0.748 0-1.296-0.091-1.378-0.839-0.073-0.62-0.009-10.174-0.009-11.305 0-2.4-0.064-2.281 2.336-2.281 1.506 0 3.020 0 4.526 0 4.8 0 5.155-0.383 5.155 1.624 0 0.538 0 2.409 0 2.956zM6.037 9.772c0 0.292-0.018 0.456 0.082 0.73 0.401 0.119 4.416 0.055 5.411 0.055 0.657 0 1.305 0.018 1.679-0.128 0.173-0.474 0.173-1.095-0.438-1.095h-6.278c-0.347 0-0.456 0.073-0.456 0.438z"></path>
</svg>
